Coordinates
version=1
nRows=10
nColumns=63
inDegrees=yes

Units are S.I. units (second, meters, Newtons, ...)
If the header above contains a line with 'inDegrees', this indicates whether rotational values are in degrees (yes) or radians (no).

endheader
time	pelvis_tilt	pelvis_list	pelvis_rotation	pelvis_tx	pelvis_ty	pelvis_tz	hip_flexion_r	hip_adduction_r	hip_rotation_r	knee_angle_r	knee_angle_r_beta	ankle_angle_r	subtalar_angle_r	mtp_angle_r	hip_flexion_l	hip_adduction_l	hip_rotation_l	knee_angle_l	knee_angle_l_beta	ankle_angle_l	subtalar_angle_l	mtp_angle_l	L5_S1_Flex_Ext	L5_S1_Lat_Bending	L5_S1_axial_rotation	L4_L5_Flex_Ext	L4_L5_Lat_Bending	L4_L5_axial_rotation	L3_L4_Flex_Ext	L3_L4_Lat_Bending	L3_L4_axial_rotation	L2_L3_Flex_Ext	L2_L3_Lat_Bending	L2_L3_axial_rotation	L1_L2_Flex_Ext	L1_L2_Lat_Bending	L1_L2_axial_rotation	L1_T12_Flex_Ext	L1_T12_Lat_Bending	L1_T12_axial_rotation	Abs_r3	Abs_r2	Abs_r1	Abs_t1	Abs_t2	neck_flexion	neck_bending	neck_rotation	arm_flex_r	arm_add_r	arm_rot_r	elbow_flex_r	pro_sup_r	wrist_flex_r	wrist_dev_r	arm_flex_l	arm_add_l	arm_rot_l	elbow_flex_l	pro_sup_l	wrist_flex_l	wrist_dev_l
0.864407	1.371074	-7.479209	98.030902	0.169743	0.939594	0.495675	-1.476281	0.194814	-6.560642	3.757984	0.065589	18.537549	5.127063	0.000000	0.886525	-2.163648	0.316458	5.625820	0.098189	19.332090	-9.963990	0.000000	0.302831	0.165990	0.465343	0.562387	0.220767	0.494427	0.497521	0.403589	0.494427	0.346106	0.403589	0.407175	0.281209	0.338488	0.378091	0.173038	0.257119	0.349007	2.163091	1.877716	2.588099	0.000000	0.000000	28.092938	-3.207054	2.995053	7.938138	-9.605779	68.100528	33.721119	34.514521	0.618219	-1.428543	16.987527	-7.511398	79.246680	35.952967	53.177947	5.740491	0.219704
0.881356	1.432240	-7.625073	98.234951	0.169069	0.939333	0.495494	-1.355390	0.212319	-7.042118	3.738533	0.065250	18.660110	5.386633	0.000000	0.929990	-2.163503	0.886489	5.379749	0.093894	18.989015	-10.464302	0.000000	0.313642	0.173833	0.484689	0.582465	0.231198	0.514982	0.515283	0.422658	0.514982	0.358462	0.422658	0.424102	0.291248	0.354481	0.393809	0.179215	0.269268	0.363516	2.240316	1.966436	2.695692	0.000000	0.000000	28.113847	-3.693713	2.608063	7.778834	-9.822153	67.968335	33.071488	39.399575	-0.717228	-1.628453	17.139080	-7.781749	80.025743	35.259717	56.487538	5.085097	0.871948
0.898305	1.474199	-7.766861	98.438137	0.168461	0.939095	0.495184	-1.265376	0.223957	-7.357166	3.686804	0.064347	18.718878	5.451683	0.000000	0.959496	-2.147651	1.370283	5.144378	0.089786	18.572347	-10.946673	0.000000	0.324183	0.176882	0.497630	0.602040	0.235252	0.528732	0.532600	0.430070	0.528732	0.370509	0.430070	0.435426	0.301036	0.360697	0.404324	0.185238	0.273990	0.373222	2.315608	2.000920	2.767668	0.000000	0.000000	28.132800	-4.107517	2.178918	7.541603	-10.117344	67.638406	32.541191	44.550677	-2.293066	-1.704653	17.187120	-8.139986	80.820151	34.560509	60.006057	3.803562	1.142405
0.915254	1.493714	-7.907864	98.641328	0.167963	0.938867	0.494740	-1.203396	0.229293	-7.504925	3.602764	0.062880	18.715255	5.330827	0.000000	0.989640	-2.115117	1.771135	4.937493	0.086176	18.102406	-11.408813	0.000000	0.334872	0.174074	0.503378	0.621890	0.231518	0.534840	0.550160	0.423243	0.534840	0.382725	0.423243	0.440456	0.310962	0.354971	0.408995	0.191346	0.269640	0.377534	2.391954	1.969159	2.799640	0.000000	0.000000	28.151336	-4.443080	1.683350	7.209555	-10.462752	67.001963	32.143824	49.724302	-3.956967	-1.703912	17.102144	-8.599603	81.469724	33.895071	63.453407	2.049817	1.021385
0.932203	1.488357	-8.047591	98.865459	0.167556	0.938640	0.494175	-1.174411	0.227537	-7.510047	3.482321	0.060778	18.658768	5.034735	0.000000	1.029979	-2.065237	2.132108	4.768167	0.083220	17.620841	-11.829009	0.000000	0.346202	0.165123	0.503062	0.642932	0.219613	0.534503	0.568776	0.401479	0.534503	0.395675	0.401479	0.440179	0.321484	0.336718	0.408737	0.197820	0.255775	0.377296	2.472889	1.867899	2.797877	0.000000	0.000000	28.168995	-4.705573	1.124927	6.775640	-10.840183	65.989418	31.865461	54.701565	-5.478873	-1.636766	16.913280	-9.149831	81.930953	33.269245	66.568295	0.111724	0.587303
0.949153	1.465667	-8.173231	99.106992	0.167241	0.938422	0.493574	-1.174722	0.224152	-7.440859	3.343251	0.058351	18.581707	4.654535	0.000000	1.072540	-2.001244	2.531676	4.628606	0.080784	17.133859	-12.312005	0.000000	0.355578	0.151737	0.505979	0.660344	0.201811	0.537603	0.584180	0.368934	0.537603	0.406390	0.368934	0.442732	0.330190	0.309423	0.411108	0.203177	0.235041	0.379485	2.539860	1.716484	2.814106	0.000000	0.000000	28.185537	-4.957777	0.459799	6.156754	-11.204189	64.081659	31.688084	60.027881	-6.678151	-1.365199	16.808204	-9.784315	82.799424	32.689899	68.500916	-1.997369	-0.239947
0.966102	1.428369	-8.287305	99.372230	0.167019	0.938198	0.492969	-1.202133	0.223582	-7.255306	3.179503	0.055493	18.483917	4.122468	0.000000	1.138816	-1.934876	2.851919	4.550895	0.079428	16.745880	-12.636085	0.000000	0.363453	0.134765	0.492247	0.674968	0.179237	0.523012	0.597116	0.327667	0.523012	0.415390	0.327667	0.430716	0.337502	0.274813	0.399950	0.207677	0.208751	0.369185	2.596106	1.524487	2.737728	0.000000	0.000000	28.200525	-5.102729	-0.141900	5.558753	-11.571533	62.144300	31.546746	64.688852	-7.593096	-0.996974	16.523287	-10.529347	83.047940	32.265401	70.202632	-3.996635	-1.035751
0.983051	1.391826	-8.391525	99.652272	0.166870	0.937966	0.492418	-1.236165	0.237118	-6.955208	3.012734	0.052582	18.365533	3.417123	0.000000	1.234852	-1.879115	3.078319	4.530088	0.079065	16.480239	-12.777341	0.000000	0.370285	0.117200	0.465091	0.687656	0.155875	0.494159	0.608341	0.284959	0.494159	0.423199	0.284959	0.406955	0.343847	0.238993	0.377887	0.211581	0.181542	0.348818	2.644909	1.325786	2.586698	0.000000	0.000000	28.213642	-5.193135	-0.660560	4.963701	-11.921946	60.022508	31.414327	68.918829	-8.162440	-0.459118	16.113509	-11.353019	82.861278	31.956931	71.511356	-5.816222	-1.741280
1.000000	1.355099	-8.479372	99.947892	0.166772	0.937728	0.491940	-1.281795	0.259955	-6.588335	2.845906	0.049670	18.250044	2.606675	0.000000	1.359093	-1.833372	3.218016	4.576662	0.079878	16.375151	-12.721692	0.000000	0.374776	0.099810	0.419732	0.695997	0.132747	0.445966	0.615720	0.242677	0.445966	0.428332	0.242677	0.367266	0.348017	0.203532	0.341032	0.214147	0.154605	0.314799	2.676988	1.129065	2.334425	0.000000	0.000000	28.225494	-5.156874	-0.980922	4.469815	-12.248543	58.189877	31.229299	72.234944	-8.356842	0.142876	15.549640	-12.241727	82.172959	31.757332	72.427409	-7.335523	-2.268623
1.016949	1.327447	-8.555425	100.248553	0.166710	0.937488	0.491605	-1.314483	0.290363	-6.306182	2.708155	0.047266	18.181838	1.901660	0.000000	1.524876	-1.809912	3.200400	4.701400	0.082055	16.452927	-12.375776	0.000000	0.376738	0.084524	0.367689	0.699640	0.112417	0.390669	0.618943	0.205512	0.390669	0.430574	0.205512	0.321728	0.349839	0.172362	0.298747	0.215268	0.130928	0.275767	2.691001	0.956156	2.044975	0.000000	0.000000	28.236362	-4.974502	-1.042621	4.056863	-12.539828	56.607211	30.970648	74.544921	-8.124938	0.782859	14.951471	-13.136598	81.409636	31.594194	72.522442	-8.523208	-2.641115
